ISO-10303-21;
HEADER;
/* Generated by software containing ST-Developer
 * from STEP Tools, Inc. (www.steptools.com) 
 */

FILE_DESCRIPTION(
/* description */ (''),
/* implementation_level */ '2;1');

FILE_NAME(
/* name */ 'Shell bottom.step',
/* time_stamp */ '2026-08-29T14:06:43+02:00',
/* author */ (''),
/* organization */ (''),
/* preprocessor_version */ 'ST-DEVELOPER v20.1',
/* originating_system */ 'Autodesk Translation Framework v15.8.0.0',
/* authorisation */ '');

FILE_SCHEMA (('AUTOMOTIVE_DESIGN { 1 0 10303 214 3 1 1 }'));
ENDSEC;

DATA;
#10=MECHANICAL_DESIGN_GEOMETRIC_PRESENTATION_REPRESENTATION('',(#13),#1419);
#11=SHAPE_REPRESENTATION_RELATIONSHIP('SRR','None',#1426,#12);
#12=ADVANCED_BREP_SHAPE_REPRESENTATION('',(#14),#1418);
#13=STYLED_ITEM('',(#1436),#14);
#14=MANIFOLD_SOLID_BREP('Body1',#843);
#15=FACE_BOUND('',#142,.T.);
#16=FACE_BOUND('',#145,.T.);
#17=FACE_BOUND('',#148,.T.);
#18=FACE_BOUND('',#151,.T.);
#19=FACE_BOUND('',#154,.T.);
#20=FACE_BOUND('',#167,.T.);
#21=FACE_BOUND('',#168,.T.);
#22=FACE_BOUND('',#169,.T.);
#23=FACE_BOUND('',#170,.T.);
#24=FACE_BOUND('',#171,.T.);
#25=FACE_BOUND('',#174,.T.);
#26=FACE_BOUND('',#183,.T.);
#27=FACE_BOUND('',#185,.T.);
#28=FACE_BOUND('',#186,.T.);
#29=FACE_BOUND('',#187,.T.);
#30=FACE_BOUND('',#188,.T.);
#31=CIRCLE('',#863,3.75);
#32=CIRCLE('',#864,3.75);
#33=CIRCLE('',#867,3.75);
#34=CIRCLE('',#868,3.75);
#35=CIRCLE('',#869,3.75);
#36=CIRCLE('',#871,3.75);
#37=CIRCLE('',#873,3.75);
#38=CIRCLE('',#874,3.75);
#39=CIRCLE('',#878,3.75);
#40=CIRCLE('',#879,3.75);
#41=CIRCLE('',#883,2.34999999999999);
#42=CIRCLE('',#884,2.34999999999999);
#43=CIRCLE('',#886,1.7);
#44=CIRCLE('',#888,2.34999999999999);
#45=CIRCLE('',#889,2.34999999999999);
#46=CIRCLE('',#891,1.7);
#47=CIRCLE('',#893,2.35);
#48=CIRCLE('',#894,2.35);
#49=CIRCLE('',#896,1.7);
#50=CIRCLE('',#898,2.35);
#51=CIRCLE('',#899,2.35);
#52=CIRCLE('',#901,1.7);
#53=CIRCLE('',#903,1.7);
#54=CIRCLE('',#905,1.7);
#55=CIRCLE('',#907,1.7);
#56=CIRCLE('',#909,1.7);
#57=CIRCLE('',#916,3.);
#58=CIRCLE('',#917,3.);
#59=CIRCLE('',#920,3.);
#60=CIRCLE('',#921,3.);
#61=CIRCLE('',#922,3.);
#62=CIRCLE('',#924,3.);
#63=CIRCLE('',#927,3.);
#64=CIRCLE('',#930,3.);
#65=CYLINDRICAL_SURFACE('',#862,3.75);
#66=CYLINDRICAL_SURFACE('',#866,3.75);
#67=CYLINDRICAL_SURFACE('',#872,3.75);
#68=CYLINDRICAL_SURFACE('',#877,3.75);
#69=CYLINDRICAL_SURFACE('',#882,2.34999999999999);
#70=CYLINDRICAL_SURFACE('',#887,2.34999999999999);
#71=CYLINDRICAL_SURFACE('',#892,2.35);
#72=CYLINDRICAL_SURFACE('',#897,2.35);
#73=CYLINDRICAL_SURFACE('',#902,1.7);
#74=CYLINDRICAL_SURFACE('',#904,1.7);
#75=CYLINDRICAL_SURFACE('',#906,1.7);
#76=CYLINDRICAL_SURFACE('',#908,1.7);
#77=CYLINDRICAL_SURFACE('',#915,3.);
#78=CYLINDRICAL_SURFACE('',#923,3.);
#79=CYLINDRICAL_SURFACE('',#926,3.);
#80=CYLINDRICAL_SURFACE('',#929,3.);
#81=FACE_OUTER_BOUND('',#127,.T.);
#82=FACE_OUTER_BOUND('',#128,.T.);
#83=FACE_OUTER_BOUND('',#129,.T.);
#84=FACE_OUTER_BOUND('',#130,.T.);
#85=FACE_OUTER_BOUND('',#131,.T.);
#86=FACE_OUTER_BOUND('',#132,.T.);
#87=FACE_OUTER_BOUND('',#133,.T.);
#88=FACE_OUTER_BOUND('',#134,.T.);
#89=FACE_OUTER_BOUND('',#135,.T.);
#90=FACE_OUTER_BOUND('',#136,.T.);
#91=FACE_OUTER_BOUND('',#137,.T.);
#92=FACE_OUTER_BOUND('',#138,.T.);
#93=FACE_OUTER_BOUND('',#139,.T.);
#94=FACE_OUTER_BOUND('',#140,.T.);
#95=FACE_OUTER_BOUND('',#141,.T.);
#96=FACE_OUTER_BOUND('',#143,.T.);
#97=FACE_OUTER_BOUND('',#144,.T.);
#98=FACE_OUTER_BOUND('',#146,.T.);
#99=FACE_OUTER_BOUND('',#147,.T.);
#100=FACE_OUTER_BOUND('',#149,.T.);
#101=FACE_OUTER_BOUND('',#150,.T.);
#102=FACE_OUTER_BOUND('',#152,.T.);
#103=FACE_OUTER_BOUND('',#153,.T.);
#104=FACE_OUTER_BOUND('',#155,.T.);
#105=FACE_OUTER_BOUND('',#156,.T.);
#106=FACE_OUTER_BOUND('',#157,.T.);
#107=FACE_OUTER_BOUND('',#158,.T.);
#108=FACE_OUTER_BOUND('',#159,.T.);
#109=FACE_OUTER_BOUND('',#160,.T.);
#110=FACE_OUTER_BOUND('',#161,.T.);
#111=FACE_OUTER_BOUND('',#162,.T.);
#112=FACE_OUTER_BOUND('',#163,.T.);
#113=FACE_OUTER_BOUND('',#164,.T.);
#114=FACE_OUTER_BOUND('',#165,.T.);
#115=FACE_OUTER_BOUND('',#166,.T.);
#116=FACE_OUTER_BOUND('',#172,.T.);
#117=FACE_OUTER_BOUND('',#173,.T.);
#118=FACE_OUTER_BOUND('',#175,.T.);
#119=FACE_OUTER_BOUND('',#176,.T.);
#120=FACE_OUTER_BOUND('',#177,.T.);
#121=FACE_OUTER_BOUND('',#178,.T.);
#122=FACE_OUTER_BOUND('',#179,.T.);
#123=FACE_OUTER_BOUND('',#180,.T.);
#124=FACE_OUTER_BOUND('',#181,.T.);
#125=FACE_OUTER_BOUND('',#182,.T.);
#126=FACE_OUTER_BOUND('',#184,.T.);
#127=EDGE_LOOP('',(#539,#540,#541,#542));
#128=EDGE_LOOP('',(#543,#544,#545,#546));
#129=EDGE_LOOP('',(#547,#548,#549,#550));
#130=EDGE_LOOP('',(#551,#552,#553,#554));
#131=EDGE_LOOP('',(#555,#556,#557,#558));
#132=EDGE_LOOP('',(#559,#560,#561,#562));
#133=EDGE_LOOP('',(#563,#564,#565,#566));
#134=EDGE_LOOP('',(#567,#568,#569,#570,#571,#572));
#135=EDGE_LOOP('',(#573,#574,#575,#576));
#136=EDGE_LOOP('',(#577,#578,#579,#580));
#137=EDGE_LOOP('',(#581,#582,#583,#584));
#138=EDGE_LOOP('',(#585,#586,#587,#588));
#139=EDGE_LOOP('',(#589,#590,#591,#592,#593,#594));
#140=EDGE_LOOP('',(#595,#596,#597,#598));
#141=EDGE_LOOP('',(#599,#600,#601,#602,#603,#604,#605,#606));
#142=EDGE_LOOP('',(#607,#608,#609,#610));
#143=EDGE_LOOP('',(#611,#612,#613,#614));
#144=EDGE_LOOP('',(#615));
#145=EDGE_LOOP('',(#616));
#146=EDGE_LOOP('',(#617,#618,#619,#620));
#147=EDGE_LOOP('',(#621));
#148=EDGE_LOOP('',(#622));
#149=EDGE_LOOP('',(#623,#624,#625,#626));
#150=EDGE_LOOP('',(#627));
#151=EDGE_LOOP('',(#628));
#152=EDGE_LOOP('',(#629,#630,#631,#632));
#153=EDGE_LOOP('',(#633));
#154=EDGE_LOOP('',(#634));
#155=EDGE_LOOP('',(#635,#636,#637,#638));
#156=EDGE_LOOP('',(#639,#640,#641,#642));
#157=EDGE_LOOP('',(#643,#644,#645,#646));
#158=EDGE_LOOP('',(#647,#648,#649,#650));
#159=EDGE_LOOP('',(#651,#652,#653,#654));
#160=EDGE_LOOP('',(#655,#656,#657,#658));
#161=EDGE_LOOP('',(#659,#660,#661,#662));
#162=EDGE_LOOP('',(#663,#664,#665,#666));
#163=EDGE_LOOP('',(#667,#668,#669,#670));
#164=EDGE_LOOP('',(#671,#672,#673,#674));
#165=EDGE_LOOP('',(#675,#676,#677,#678));
#166=EDGE_LOOP('',(#679,#680,#681,#682,#683,#684,#685,#686));
#167=EDGE_LOOP('',(#687,#688,#689,#690));
#168=EDGE_LOOP('',(#691));
#169=EDGE_LOOP('',(#692));
#170=EDGE_LOOP('',(#693));
#171=EDGE_LOOP('',(#694));
#172=EDGE_LOOP('',(#695,#696,#697,#698));
#173=EDGE_LOOP('',(#699,#700,#701,#702));
#174=EDGE_LOOP('',(#703,#704,#705,#706,#707,#708,#709,#710));
#175=EDGE_LOOP('',(#711,#712,#713,#714));
#176=EDGE_LOOP('',(#715,#716,#717,#718));
#177=EDGE_LOOP('',(#719,#720,#721,#722));
#178=EDGE_LOOP('',(#723,#724,#725,#726));
#179=EDGE_LOOP('',(#727,#728,#729,#730,#731,#732,#733,#734,#735,#736,#737,
#738));
#180=EDGE_LOOP('',(#739,#740,#741,#742));
#181=EDGE_LOOP('',(#743,#744,#745,#746));
#182=EDGE_LOOP('',(#747,#748,#749,#750));
#183=EDGE_LOOP('',(#751,#752,#753,#754));
#184=EDGE_LOOP('',(#755,#756,#757,#758,#759,#760,#761,#762));
#185=EDGE_LOOP('',(#763));
#186=EDGE_LOOP('',(#764));
#187=EDGE_LOOP('',(#765));
#188=EDGE_LOOP('',(#766));
#189=LINE('',#1183,#269);
#190=LINE('',#1185,#270);
#191=LINE('',#1187,#271);
#192=LINE('',#1188,#272);
#193=LINE('',#1191,#273);
#194=LINE('',#1193,#274);
#195=LINE('',#1194,#275);
#196=LINE('',#1197,#276);
#197=LINE('',#1199,#277);
#198=LINE('',#1200,#278);
#199=LINE('',#1202,#279);
#200=LINE('',#1203,#280);
#201=LINE('',#1210,#281);
#202=LINE('',#1213,#282);
#203=LINE('',#1216,#283);
#204=LINE('',#1218,#284);
#205=LINE('',#1219,#285);
#206=LINE('',#1226,#286);
#207=LINE('',#1229,#287);
#208=LINE('',#1232,#288);
#209=LINE('',#1234,#289);
#210=LINE('',#1241,#290);
#211=LINE('',#1244,#291);
#212=LINE('',#1246,#292);
#213=LINE('',#1247,#293);
#214=LINE('',#1250,#294);
#215=LINE('',#1251,#295);
#216=LINE('',#1256,#296);
#217=LINE('',#1259,#297);
#218=LINE('',#1261,#298);
#219=LINE('',#1262,#299);
#220=LINE('',#1265,#300);
#221=LINE('',#1267,#301);
#222=LINE('',#1269,#302);
#223=LINE('',#1271,#303);
#224=LINE('',#1272,#304);
#225=LINE('',#1277,#305);
#226=LINE('',#1286,#306);
#227=LINE('',#1295,#307);
#228=LINE('',#1304,#308);
#229=LINE('',#1312,#309);
#230=LINE('',#1316,#310);
#231=LINE('',#1320,#311);
#232=LINE('',#1324,#312);
#233=LINE('',#1328,#313);
#234=LINE('',#1330,#314);
#235=LINE('',#1332,#315);
#236=LINE('',#1333,#316);
#237=LINE('',#1336,#317);
#238=LINE('',#1338,#318);
#239=LINE('',#1339,#319);
#240=LINE('',#1342,#320);
#241=LINE('',#1344,#321);
#242=LINE('',#1345,#322);
#243=LINE('',#1347,#323);
#244=LINE('',#1348,#324);
#245=LINE('',#1355,#325);
#246=LINE('',#1358,#326);
#247=LINE('',#1361,#327);
#248=LINE('',#1363,#328);
#249=LINE('',#1364,#329);
#250=LINE('',#1367,#330);
#251=LINE('',#1371,#331);
#252=LINE('',#1375,#332);
#253=LINE('',#1379,#333);
#254=LINE('',#1381,#334);
#255=LINE('',#1383,#335);
#256=LINE('',#1384,#336);
#257=LINE('',#1387,#337);
#258=LINE('',#1391,#338);
#259=LINE('',#1392,#339);
#260=LINE('',#1395,#340);
#261=LINE('',#1399,#341);
#262=LINE('',#1400,#342);
#263=LINE('',#1403,#343);
#264=LINE('',#1406,#344);
#265=LINE('',#1407,#345);
#266=LINE('',#1409,#346);
#267=LINE('',#1411,#347);
#268=LINE('',#1414,#348);
#269=VECTOR('',#941,10.);
#270=VECTOR('',#942,10.);
#271=VECTOR('',#943,10.);
#272=VECTOR('',#944,10.);
#273=VECTOR('',#947,10.);
#274=VECTOR('',#948,10.);
#275=VECTOR('',#949,10.);
#276=VECTOR('',#952,10.);
#277=VECTOR('',#953,10.);
#278=VECTOR('',#954,10.);
#279=VECTOR('',#957,10.);
#280=VECTOR('',#958,10.);
#281=VECTOR('',#965,10.);
#282=VECTOR('',#968,10.);
#283=VECTOR('',#971,10.);
#284=VECTOR('',#972,10.);
#285=VECTOR('',#973,10.);
#286=VECTOR('',#980,10.);
#287=VECTOR('',#983,10.);
#288=VECTOR('',#986,10.);
#289=VECTOR('',#987,10.);
#290=VECTOR('',#994,10.);
#291=VECTOR('',#997,10.);
#292=VECTOR('',#1000,10.);
#293=VECTOR('',#1001,10.);
#294=VECTOR('',#1004,10.);
#295=VECTOR('',#1005,10.);
#296=VECTOR('',#1010,10.);
#297=VECTOR('',#1013,10.);
#298=VECTOR('',#1016,10.);
#299=VECTOR('',#1017,10.);
#300=VECTOR('',#1020,10.);
#301=VECTOR('',#1021,10.);
#302=VECTOR('',#1022,10.);
#303=VECTOR('',#1023,10.);
#304=VECTOR('',#1024,10.);
#305=VECTOR('',#1029,2.34999999999999);
#306=VECTOR('',#1040,2.34999999999999);
#307=VECTOR('',#1051,2.35);
#308=VECTOR('',#1062,2.35);
#309=VECTOR('',#1073,1.7);
#310=VECTOR('',#1078,1.7);
#311=VECTOR('',#1083,1.7);
#312=VECTOR('',#1088,1.7);
#313=VECTOR('',#1091,10.);
#314=VECTOR('',#1092,10.);
#315=VECTOR('',#1093,10.);
#316=VECTOR('',#1094,10.);
#317=VECTOR('',#1097,10.);
#318=VECTOR('',#1098,10.);
#319=VECTOR('',#1099,10.);
#320=VECTOR('',#1102,10.);
#321=VECTOR('',#1103,10.);
#322=VECTOR('',#1104,10.);
#323=VECTOR('',#1107,10.);
#324=VECTOR('',#1108,10.);
#325=VECTOR('',#1115,10.);
#326=VECTOR('',#1118,10.);
#327=VECTOR('',#1121,10.);
#328=VECTOR('',#1122,10.);
#329=VECTOR('',#1123,10.);
#330=VECTOR('',#1126,10.);
#331=VECTOR('',#1129,10.);
#332=VECTOR('',#1132,10.);
#333=VECTOR('',#1135,10.);
#334=VECTOR('',#1136,10.);
#335=VECTOR('',#1137,10.);
#336=VECTOR('',#1138,10.);
#337=VECTOR('',#1141,10.);
#338=VECTOR('',#1146,10.);
#339=VECTOR('',#1147,10.);
#340=VECTOR('',#1150,10.);
#341=VECTOR('',#1155,10.);
#342=VECTOR('',#1156,10.);
#343=VECTOR('',#1159,10.);
#344=VECTOR('',#1164,10.);
#345=VECTOR('',#1165,10.);
#346=VECTOR('',#1168,10.);
#347=VECTOR('',#1171,10.);
#348=VECTOR('',#1176,10.);
#349=VERTEX_POINT('',#1181);
#350=VERTEX_POINT('',#1182);
#351=VERTEX_POINT('',#1184);
#352=VERTEX_POINT('',#1186);
#353=VERTEX_POINT('',#1190);
#354=VERTEX_POINT('',#1192);
#355=VERTEX_POINT('',#1196);
#356=VERTEX_POINT('',#1198);
#357=VERTEX_POINT('',#1206);
#358=VERTEX_POINT('',#1207);
#359=VERTEX_POINT('',#1209);
#360=VERTEX_POINT('',#1211);
#361=VERTEX_POINT('',#1215);
#362=VERTEX_POINT('',#1217);
#363=VERTEX_POINT('',#1221);
#364=VERTEX_POINT('',#1223);
#365=VERTEX_POINT('',#1225);
#366=VERTEX_POINT('',#1227);
#367=VERTEX_POINT('',#1231);
#368=VERTEX_POINT('',#1233);
#369=VERTEX_POINT('',#1237);
#370=VERTEX_POINT('',#1238);
#371=VERTEX_POINT('',#1240);
#372=VERTEX_POINT('',#1242);
#373=VERTEX_POINT('',#1249);
#374=VERTEX_POINT('',#1253);
#375=VERTEX_POINT('',#1254);
#376=VERTEX_POINT('',#1257);
#377=VERTEX_POINT('',#1264);
#378=VERTEX_POINT('',#1266);
#379=VERTEX_POINT('',#1268);
#380=VERTEX_POINT('',#1270);
#381=VERTEX_POINT('',#1274);
#382=VERTEX_POINT('',#1276);
#383=VERTEX_POINT('',#1280);
#384=VERTEX_POINT('',#1283);
#385=VERTEX_POINT('',#1285);
#386=VERTEX_POINT('',#1289);
#387=VERTEX_POINT('',#1292);
#388=VERTEX_POINT('',#1294);
#389=VERTEX_POINT('',#1298);
#390=VERTEX_POINT('',#1301);
#391=VERTEX_POINT('',#1303);
#392=VERTEX_POINT('',#1307);
#393=VERTEX_POINT('',#1310);
#394=VERTEX_POINT('',#1314);
#395=VERTEX_POINT('',#1318);
#396=VERTEX_POINT('',#1322);
#397=VERTEX_POINT('',#1326);
#398=VERTEX_POINT('',#1327);
#399=VERTEX_POINT('',#1329);
#400=VERTEX_POINT('',#1331);
#401=VERTEX_POINT('',#1335);
#402=VERTEX_POINT('',#1337);
#403=VERTEX_POINT('',#1341);
#404=VERTEX_POINT('',#1343);
#405=VERTEX_POINT('',#1351);
#406=VERTEX_POINT('',#1352);
#407=VERTEX_POINT('',#1354);
#408=VERTEX_POINT('',#1356);
#409=VERTEX_POINT('',#1360);
#410=VERTEX_POINT('',#1362);
#411=VERTEX_POINT('',#1366);
#412=VERTEX_POINT('',#1368);
#413=VERTEX_POINT('',#1370);
#414=VERTEX_POINT('',#1372);
#415=VERTEX_POINT('',#1374);
#416=VERTEX_POINT('',#1377);
#417=VERTEX_POINT('',#1378);
#418=VERTEX_POINT('',#1380);
#419=VERTEX_POINT('',#1382);
#420=VERTEX_POINT('',#1386);
#421=VERTEX_POINT('',#1390);
#422=VERTEX_POINT('',#1394);
#423=VERTEX_POINT('',#1398);
#424=VERTEX_POINT('',#1402);
#425=EDGE_CURVE('',#349,#350,#189,.T.);
#426=EDGE_CURVE('',#349,#351,#190,.T.);
#427=EDGE_CURVE('',#351,#352,#191,.T.);
#428=EDGE_CURVE('',#350,#352,#192,.T.);
#429=EDGE_CURVE('',#353,#349,#193,.T.);
#430=EDGE_CURVE('',#353,#354,#194,.T.);
#431=EDGE_CURVE('',#354,#351,#195,.T.);
#432=EDGE_CURVE('',#355,#353,#196,.T.);
#433=EDGE_CURVE('',#355,#356,#197,.T.);
#434=EDGE_CURVE('',#356,#354,#198,.T.);
#435=EDGE_CURVE('',#350,#355,#199,.T.);
#436=EDGE_CURVE('',#352,#356,#200,.T.);
#437=EDGE_CURVE('',#357,#358,#31,.T.);
#438=EDGE_CURVE('',#359,#357,#201,.T.);
#439=EDGE_CURVE('',#360,#359,#32,.T.);
#440=EDGE_CURVE('',#360,#358,#202,.T.);
#441=EDGE_CURVE('',#358,#361,#203,.T.);
#442=EDGE_CURVE('',#362,#360,#204,.T.);
#443=EDGE_CURVE('',#362,#361,#205,.T.);
#444=EDGE_CURVE('',#361,#363,#33,.T.);
#445=EDGE_CURVE('',#364,#362,#34,.T.);
#446=EDGE_CURVE('',#364,#365,#206,.T.);
#447=EDGE_CURVE('',#365,#366,#35,.T.);
#448=EDGE_CURVE('',#363,#366,#207,.T.);
#449=EDGE_CURVE('',#366,#367,#208,.T.);
#450=EDGE_CURVE('',#368,#365,#209,.T.);
#451=EDGE_CURVE('',#367,#368,#36,.T.);
#452=EDGE_CURVE('',#369,#370,#37,.T.);
#453=EDGE_CURVE('',#371,#369,#210,.T.);
#454=EDGE_CURVE('',#372,#371,#38,.T.);
#455=EDGE_CURVE('',#372,#370,#211,.T.);
#456=EDGE_CURVE('',#370,#357,#212,.T.);
#457=EDGE_CURVE('',#359,#372,#213,.T.);
#458=EDGE_CURVE('',#373,#364,#214,.T.);
#459=EDGE_CURVE('',#373,#368,#215,.T.);
#460=EDGE_CURVE('',#374,#375,#39,.T.);
#461=EDGE_CURVE('',#367,#374,#216,.T.);
#462=EDGE_CURVE('',#376,#373,#40,.T.);
#463=EDGE_CURVE('',#376,#375,#217,.T.);
#464=EDGE_CURVE('',#375,#369,#218,.T.);
#465=EDGE_CURVE('',#371,#376,#219,.T.);
#466=EDGE_CURVE('',#377,#374,#220,.T.);
#467=EDGE_CURVE('',#378,#377,#221,.T.);
#468=EDGE_CURVE('',#379,#378,#222,.T.);
#469=EDGE_CURVE('',#380,#379,#223,.T.);
#470=EDGE_CURVE('',#363,#380,#224,.T.);
#471=EDGE_CURVE('',#381,#381,#41,.T.);
#472=EDGE_CURVE('',#381,#382,#225,.T.);
#473=EDGE_CURVE('',#382,#382,#42,.T.);
#474=EDGE_CURVE('',#383,#383,#43,.T.);
#475=EDGE_CURVE('',#384,#384,#44,.T.);
#476=EDGE_CURVE('',#384,#385,#226,.T.);
#477=EDGE_CURVE('',#385,#385,#45,.T.);
#478=EDGE_CURVE('',#386,#386,#46,.T.);
#479=EDGE_CURVE('',#387,#387,#47,.T.);
#480=EDGE_CURVE('',#387,#388,#227,.T.);
#481=EDGE_CURVE('',#388,#388,#48,.T.);
#482=EDGE_CURVE('',#389,#389,#49,.T.);
#483=EDGE_CURVE('',#390,#390,#50,.T.);
#484=EDGE_CURVE('',#390,#391,#228,.T.);
#485=EDGE_CURVE('',#391,#391,#51,.T.);
#486=EDGE_CURVE('',#392,#392,#52,.T.);
#487=EDGE_CURVE('',#393,#393,#53,.T.);
#488=EDGE_CURVE('',#393,#386,#229,.T.);
#489=EDGE_CURVE('',#394,#394,#54,.T.);
#490=EDGE_CURVE('',#394,#383,#230,.T.);
#491=EDGE_CURVE('',#395,#395,#55,.T.);
#492=EDGE_CURVE('',#395,#392,#231,.T.);
#493=EDGE_CURVE('',#396,#396,#56,.T.);
#494=EDGE_CURVE('',#396,#389,#232,.T.);
#495=EDGE_CURVE('',#397,#398,#233,.T.);
#496=EDGE_CURVE('',#397,#399,#234,.T.);
#497=EDGE_CURVE('',#399,#400,#235,.T.);
#498=EDGE_CURVE('',#398,#400,#236,.T.);
#499=EDGE_CURVE('',#401,#397,#237,.T.);
#500=EDGE_CURVE('',#401,#402,#238,.T.);
#501=EDGE_CURVE('',#402,#399,#239,.T.);
#502=EDGE_CURVE('',#403,#401,#240,.T.);
#503=EDGE_CURVE('',#403,#404,#241,.T.);
#504=EDGE_CURVE('',#404,#402,#242,.T.);
#505=EDGE_CURVE('',#398,#403,#243,.T.);
#506=EDGE_CURVE('',#400,#404,#244,.T.);
#507=EDGE_CURVE('',#405,#406,#57,.T.);
#508=EDGE_CURVE('',#406,#407,#245,.T.);
#509=EDGE_CURVE('',#407,#408,#58,.T.);
#510=EDGE_CURVE('',#408,#405,#246,.T.);
#511=EDGE_CURVE('',#409,#406,#247,.T.);
#512=EDGE_CURVE('',#410,#409,#248,.T.);
#513=EDGE_CURVE('',#410,#407,#249,.T.);
#514=EDGE_CURVE('',#405,#411,#250,.T.);
#515=EDGE_CURVE('',#412,#411,#59,.T.);
#516=EDGE_CURVE('',#412,#413,#251,.T.);
#517=EDGE_CURVE('',#414,#413,#60,.T.);
#518=EDGE_CURVE('',#414,#415,#252,.T.);
#519=EDGE_CURVE('',#409,#415,#61,.T.);
#520=EDGE_CURVE('',#416,#417,#253,.T.);
#521=EDGE_CURVE('',#417,#418,#254,.T.);
#522=EDGE_CURVE('',#418,#419,#255,.T.);
#523=EDGE_CURVE('',#419,#416,#256,.T.);
#524=EDGE_CURVE('',#415,#420,#257,.T.);
#525=EDGE_CURVE('',#420,#410,#62,.T.);
#526=EDGE_CURVE('',#421,#414,#258,.T.);
#527=EDGE_CURVE('',#421,#420,#259,.T.);
#528=EDGE_CURVE('',#413,#422,#260,.T.);
#529=EDGE_CURVE('',#422,#421,#63,.T.);
#530=EDGE_CURVE('',#423,#412,#261,.T.);
#531=EDGE_CURVE('',#423,#422,#262,.T.);
#532=EDGE_CURVE('',#411,#424,#263,.T.);
#533=EDGE_CURVE('',#424,#423,#64,.T.);
#534=EDGE_CURVE('',#377,#417,#264,.T.);
#535=EDGE_CURVE('',#378,#416,#265,.T.);
#536=EDGE_CURVE('',#380,#418,#266,.T.);
#537=EDGE_CURVE('',#379,#419,#267,.T.);
#538=EDGE_CURVE('',#408,#424,#268,.T.);
#539=ORIENTED_EDGE('',*,*,#425,.F.);
#540=ORIENTED_EDGE('',*,*,#426,.T.);
#541=ORIENTED_EDGE('',*,*,#427,.T.);
#542=ORIENTED_EDGE('',*,*,#428,.F.);
#543=ORIENTED_EDGE('',*,*,#429,.F.);
#544=ORIENTED_EDGE('',*,*,#430,.T.);
#545=ORIENTED_EDGE('',*,*,#431,.T.);
#546=ORIENTED_EDGE('',*,*,#426,.F.);
#547=ORIENTED_EDGE('',*,*,#432,.F.);
#548=ORIENTED_EDGE('',*,*,#433,.T.);
#549=ORIENTED_EDGE('',*,*,#434,.T.);
#550=ORIENTED_EDGE('',*,*,#430,.F.);
#551=ORIENTED_EDGE('',*,*,#435,.F.);
#552=ORIENTED_EDGE('',*,*,#428,.T.);
#553=ORIENTED_EDGE('',*,*,#436,.T.);
#554=ORIENTED_EDGE('',*,*,#433,.F.);
#555=ORIENTED_EDGE('',*,*,#436,.F.);
#556=ORIENTED_EDGE('',*,*,#427,.F.);
#557=ORIENTED_EDGE('',*,*,#431,.F.);
#558=ORIENTED_EDGE('',*,*,#434,.F.);
#559=ORIENTED_EDGE('',*,*,#437,.F.);
#560=ORIENTED_EDGE('',*,*,#438,.F.);
#561=ORIENTED_EDGE('',*,*,#439,.F.);
#562=ORIENTED_EDGE('',*,*,#440,.T.);
#563=ORIENTED_EDGE('',*,*,#441,.F.);
#564=ORIENTED_EDGE('',*,*,#440,.F.);
#565=ORIENTED_EDGE('',*,*,#442,.F.);
#566=ORIENTED_EDGE('',*,*,#443,.T.);
#567=ORIENTED_EDGE('',*,*,#444,.F.);
#568=ORIENTED_EDGE('',*,*,#443,.F.);
#569=ORIENTED_EDGE('',*,*,#445,.F.);
#570=ORIENTED_EDGE('',*,*,#446,.T.);
#571=ORIENTED_EDGE('',*,*,#447,.T.);
#572=ORIENTED_EDGE('',*,*,#448,.F.);
#573=ORIENTED_EDGE('',*,*,#449,.F.);
#574=ORIENTED_EDGE('',*,*,#447,.F.);
#575=ORIENTED_EDGE('',*,*,#450,.F.);
#576=ORIENTED_EDGE('',*,*,#451,.F.);
#577=ORIENTED_EDGE('',*,*,#452,.F.);
#578=ORIENTED_EDGE('',*,*,#453,.F.);
#579=ORIENTED_EDGE('',*,*,#454,.F.);
#580=ORIENTED_EDGE('',*,*,#455,.T.);
#581=ORIENTED_EDGE('',*,*,#456,.F.);
#582=ORIENTED_EDGE('',*,*,#455,.F.);
#583=ORIENTED_EDGE('',*,*,#457,.F.);
#584=ORIENTED_EDGE('',*,*,#438,.T.);
#585=ORIENTED_EDGE('',*,*,#458,.F.);
#586=ORIENTED_EDGE('',*,*,#459,.T.);
#587=ORIENTED_EDGE('',*,*,#450,.T.);
#588=ORIENTED_EDGE('',*,*,#446,.F.);
#589=ORIENTED_EDGE('',*,*,#460,.F.);
#590=ORIENTED_EDGE('',*,*,#461,.F.);
#591=ORIENTED_EDGE('',*,*,#451,.T.);
#592=ORIENTED_EDGE('',*,*,#459,.F.);
#593=ORIENTED_EDGE('',*,*,#462,.F.);
#594=ORIENTED_EDGE('',*,*,#463,.T.);
#595=ORIENTED_EDGE('',*,*,#464,.F.);
#596=ORIENTED_EDGE('',*,*,#463,.F.);
#597=ORIENTED_EDGE('',*,*,#465,.F.);
#598=ORIENTED_EDGE('',*,*,#453,.T.);
#599=ORIENTED_EDGE('',*,*,#448,.T.);
#600=ORIENTED_EDGE('',*,*,#449,.T.);
#601=ORIENTED_EDGE('',*,*,#461,.T.);
#602=ORIENTED_EDGE('',*,*,#466,.F.);
#603=ORIENTED_EDGE('',*,*,#467,.F.);
#604=ORIENTED_EDGE('',*,*,#468,.F.);
#605=ORIENTED_EDGE('',*,*,#469,.F.);
#606=ORIENTED_EDGE('',*,*,#470,.F.);
#607=ORIENTED_EDGE('',*,*,#425,.T.);
#608=ORIENTED_EDGE('',*,*,#435,.T.);
#609=ORIENTED_EDGE('',*,*,#432,.T.);
#610=ORIENTED_EDGE('',*,*,#429,.T.);
#611=ORIENTED_EDGE('',*,*,#471,.F.);
#612=ORIENTED_EDGE('',*,*,#472,.T.);
#613=ORIENTED_EDGE('',*,*,#473,.T.);
#614=ORIENTED_EDGE('',*,*,#472,.F.);
#615=ORIENTED_EDGE('',*,*,#473,.F.);
#616=ORIENTED_EDGE('',*,*,#474,.F.);
#617=ORIENTED_EDGE('',*,*,#475,.F.);
#618=ORIENTED_EDGE('',*,*,#476,.T.);
#619=ORIENTED_EDGE('',*,*,#477,.T.);
#620=ORIENTED_EDGE('',*,*,#476,.F.);
#621=ORIENTED_EDGE('',*,*,#477,.F.);
#622=ORIENTED_EDGE('',*,*,#478,.F.);
#623=ORIENTED_EDGE('',*,*,#479,.F.);
#624=ORIENTED_EDGE('',*,*,#480,.T.);
#625=ORIENTED_EDGE('',*,*,#481,.T.);
#626=ORIENTED_EDGE('',*,*,#480,.F.);
#627=ORIENTED_EDGE('',*,*,#481,.F.);
#628=ORIENTED_EDGE('',*,*,#482,.F.);
#629=ORIENTED_EDGE('',*,*,#483,.F.);
#630=ORIENTED_EDGE('',*,*,#484,.T.);
#631=ORIENTED_EDGE('',*,*,#485,.T.);
#632=ORIENTED_EDGE('',*,*,#484,.F.);
#633=ORIENTED_EDGE('',*,*,#485,.F.);
#634=ORIENTED_EDGE('',*,*,#486,.F.);
#635=ORIENTED_EDGE('',*,*,#487,.F.);
#636=ORIENTED_EDGE('',*,*,#488,.T.);
#637=ORIENTED_EDGE('',*,*,#478,.T.);
#638=ORIENTED_EDGE('',*,*,#488,.F.);
#639=ORIENTED_EDGE('',*,*,#489,.F.);
#640=ORIENTED_EDGE('',*,*,#490,.T.);
#641=ORIENTED_EDGE('',*,*,#474,.T.);
#642=ORIENTED_EDGE('',*,*,#490,.F.);
#643=ORIENTED_EDGE('',*,*,#491,.F.);
#644=ORIENTED_EDGE('',*,*,#492,.T.);
#645=ORIENTED_EDGE('',*,*,#486,.T.);
#646=ORIENTED_EDGE('',*,*,#492,.F.);
#647=ORIENTED_EDGE('',*,*,#493,.F.);
#648=ORIENTED_EDGE('',*,*,#494,.T.);
#649=ORIENTED_EDGE('',*,*,#482,.T.);
#650=ORIENTED_EDGE('',*,*,#494,.F.);
#651=ORIENTED_EDGE('',*,*,#495,.F.);
#652=ORIENTED_EDGE('',*,*,#496,.T.);
#653=ORIENTED_EDGE('',*,*,#497,.T.);
#654=ORIENTED_EDGE('',*,*,#498,.F.);
#655=ORIENTED_EDGE('',*,*,#499,.F.);
#656=ORIENTED_EDGE('',*,*,#500,.T.);
#657=ORIENTED_EDGE('',*,*,#501,.T.);
#658=ORIENTED_EDGE('',*,*,#496,.F.);
#659=ORIENTED_EDGE('',*,*,#502,.F.);
#660=ORIENTED_EDGE('',*,*,#503,.T.);
#661=ORIENTED_EDGE('',*,*,#504,.T.);
#662=ORIENTED_EDGE('',*,*,#500,.F.);
#663=ORIENTED_EDGE('',*,*,#505,.F.);
#664=ORIENTED_EDGE('',*,*,#498,.T.);
#665=ORIENTED_EDGE('',*,*,#506,.T.);
#666=ORIENTED_EDGE('',*,*,#503,.F.);
#667=ORIENTED_EDGE('',*,*,#506,.F.);
#668=ORIENTED_EDGE('',*,*,#497,.F.);
#669=ORIENTED_EDGE('',*,*,#501,.F.);
#670=ORIENTED_EDGE('',*,*,#504,.F.);
#671=ORIENTED_EDGE('',*,*,#507,.T.);
#672=ORIENTED_EDGE('',*,*,#508,.T.);
#673=ORIENTED_EDGE('',*,*,#509,.T.);
#674=ORIENTED_EDGE('',*,*,#510,.T.);
#675=ORIENTED_EDGE('',*,*,#508,.F.);
#676=ORIENTED_EDGE('',*,*,#511,.F.);
#677=ORIENTED_EDGE('',*,*,#512,.F.);
#678=ORIENTED_EDGE('',*,*,#513,.T.);
#679=ORIENTED_EDGE('',*,*,#507,.F.);
#680=ORIENTED_EDGE('',*,*,#514,.T.);
#681=ORIENTED_EDGE('',*,*,#515,.F.);
#682=ORIENTED_EDGE('',*,*,#516,.T.);
#683=ORIENTED_EDGE('',*,*,#517,.F.);
#684=ORIENTED_EDGE('',*,*,#518,.T.);
#685=ORIENTED_EDGE('',*,*,#519,.F.);
#686=ORIENTED_EDGE('',*,*,#511,.T.);
#687=ORIENTED_EDGE('',*,*,#520,.T.);
#688=ORIENTED_EDGE('',*,*,#521,.T.);
#689=ORIENTED_EDGE('',*,*,#522,.T.);
#690=ORIENTED_EDGE('',*,*,#523,.T.);
#691=ORIENTED_EDGE('',*,*,#493,.T.);
#692=ORIENTED_EDGE('',*,*,#491,.T.);
#693=ORIENTED_EDGE('',*,*,#489,.T.);
#694=ORIENTED_EDGE('',*,*,#487,.T.);
#695=ORIENTED_EDGE('',*,*,#519,.T.);
#696=ORIENTED_EDGE('',*,*,#524,.T.);
#697=ORIENTED_EDGE('',*,*,#525,.T.);
#698=ORIENTED_EDGE('',*,*,#512,.T.);
#699=ORIENTED_EDGE('',*,*,#524,.F.);
#700=ORIENTED_EDGE('',*,*,#518,.F.);
#701=ORIENTED_EDGE('',*,*,#526,.F.);
#702=ORIENTED_EDGE('',*,*,#527,.T.);
#703=ORIENTED_EDGE('',*,*,#454,.T.);
#704=ORIENTED_EDGE('',*,*,#465,.T.);
#705=ORIENTED_EDGE('',*,*,#462,.T.);
#706=ORIENTED_EDGE('',*,*,#458,.T.);
#707=ORIENTED_EDGE('',*,*,#445,.T.);
#708=ORIENTED_EDGE('',*,*,#442,.T.);
#709=ORIENTED_EDGE('',*,*,#439,.T.);
#710=ORIENTED_EDGE('',*,*,#457,.T.);
#711=ORIENTED_EDGE('',*,*,#517,.T.);
#712=ORIENTED_EDGE('',*,*,#528,.T.);
#713=ORIENTED_EDGE('',*,*,#529,.T.);
#714=ORIENTED_EDGE('',*,*,#526,.T.);
#715=ORIENTED_EDGE('',*,*,#528,.F.);
#716=ORIENTED_EDGE('',*,*,#516,.F.);
#717=ORIENTED_EDGE('',*,*,#530,.F.);
#718=ORIENTED_EDGE('',*,*,#531,.T.);
#719=ORIENTED_EDGE('',*,*,#515,.T.);
#720=ORIENTED_EDGE('',*,*,#532,.T.);
#721=ORIENTED_EDGE('',*,*,#533,.T.);
#722=ORIENTED_EDGE('',*,*,#530,.T.);
#723=ORIENTED_EDGE('',*,*,#467,.T.);
#724=ORIENTED_EDGE('',*,*,#534,.T.);
#725=ORIENTED_EDGE('',*,*,#520,.F.);
#726=ORIENTED_EDGE('',*,*,#535,.F.);
#727=ORIENTED_EDGE('',*,*,#444,.T.);
#728=ORIENTED_EDGE('',*,*,#470,.T.);
#729=ORIENTED_EDGE('',*,*,#536,.T.);
#730=ORIENTED_EDGE('',*,*,#521,.F.);
#731=ORIENTED_EDGE('',*,*,#534,.F.);
#732=ORIENTED_EDGE('',*,*,#466,.T.);
#733=ORIENTED_EDGE('',*,*,#460,.T.);
#734=ORIENTED_EDGE('',*,*,#464,.T.);
#735=ORIENTED_EDGE('',*,*,#452,.T.);
#736=ORIENTED_EDGE('',*,*,#456,.T.);
#737=ORIENTED_EDGE('',*,*,#437,.T.);
#738=ORIENTED_EDGE('',*,*,#441,.T.);
#739=ORIENTED_EDGE('',*,*,#468,.T.);
#740=ORIENTED_EDGE('',*,*,#535,.T.);
#741=ORIENTED_EDGE('',*,*,#523,.F.);
#742=ORIENTED_EDGE('',*,*,#537,.F.);
#743=ORIENTED_EDGE('',*,*,#469,.T.);
#744=ORIENTED_EDGE('',*,*,#537,.T.);
#745=ORIENTED_EDGE('',*,*,#522,.F.);
#746=ORIENTED_EDGE('',*,*,#536,.F.);
#747=ORIENTED_EDGE('',*,*,#510,.F.);
#748=ORIENTED_EDGE('',*,*,#538,.T.);
#749=ORIENTED_EDGE('',*,*,#532,.F.);
#750=ORIENTED_EDGE('',*,*,#514,.F.);
#751=ORIENTED_EDGE('',*,*,#495,.T.);
#752=ORIENTED_EDGE('',*,*,#505,.T.);
#753=ORIENTED_EDGE('',*,*,#502,.T.);
#754=ORIENTED_EDGE('',*,*,#499,.T.);
#755=ORIENTED_EDGE('',*,*,#509,.F.);
#756=ORIENTED_EDGE('',*,*,#513,.F.);
#757=ORIENTED_EDGE('',*,*,#525,.F.);
#758=ORIENTED_EDGE('',*,*,#527,.F.);
#759=ORIENTED_EDGE('',*,*,#529,.F.);
#760=ORIENTED_EDGE('',*,*,#531,.F.);
#761=ORIENTED_EDGE('',*,*,#533,.F.);
#762=ORIENTED_EDGE('',*,*,#538,.F.);
#763=ORIENTED_EDGE('',*,*,#483,.T.);
#764=ORIENTED_EDGE('',*,*,#479,.T.);
#765=ORIENTED_EDGE('',*,*,#475,.T.);
#766=ORIENTED_EDGE('',*,*,#471,.T.);
#767=PLANE('',#857);
#768=PLANE('',#858);
#769=PLANE('',#859);
#770=PLANE('',#860);
#771=PLANE('',#861);
#772=PLANE('',#865);
#773=PLANE('',#870);
#774=PLANE('',#875);
#775=PLANE('',#876);
#776=PLANE('',#880);
#777=PLANE('',#881);
#778=PLANE('',#885);
#779=PLANE('',#890);
#780=PLANE('',#895);
#781=PLANE('',#900);
#782=PLANE('',#910);
#783=PLANE('',#911);
#784=PLANE('',#912);
#785=PLANE('',#913);
#786=PLANE('',#914);
#787=PLANE('',#918);
#788=PLANE('',#919);
#789=PLANE('',#925);
#790=PLANE('',#928);
#791=PLANE('',#931);
#792=PLANE('',#932);
#793=PLANE('',#933);
#794=PLANE('',#934);
#795=PLANE('',#935);
#796=PLANE('',#936);
#797=ADVANCED_FACE('',(#81),#767,.F.);
#798=ADVANCED_FACE('',(#82),#768,.F.);
#799=ADVANCED_FACE('',(#83),#769,.F.);
#800=ADVANCED_FACE('',(#84),#770,.F.);
#801=ADVANCED_FACE('',(#85),#771,.F.);
#802=ADVANCED_FACE('',(#86),#65,.F.);
#803=ADVANCED_FACE('',(#87),#772,.F.);
#804=ADVANCED_FACE('',(#88),#66,.F.);
#805=ADVANCED_FACE('',(#89),#773,.T.);
#806=ADVANCED_FACE('',(#90),#67,.F.);
#807=ADVANCED_FACE('',(#91),#774,.F.);
#808=ADVANCED_FACE('',(#92),#775,.F.);
#809=ADVANCED_FACE('',(#93),#68,.F.);
#810=ADVANCED_FACE('',(#94),#776,.F.);
#811=ADVANCED_FACE('',(#95,#15),#777,.T.);
#812=ADVANCED_FACE('',(#96),#69,.F.);
#813=ADVANCED_FACE('',(#97,#16),#778,.T.);
#814=ADVANCED_FACE('',(#98),#70,.F.);
#815=ADVANCED_FACE('',(#99,#17),#779,.T.);
#816=ADVANCED_FACE('',(#100),#71,.F.);
#817=ADVANCED_FACE('',(#101,#18),#780,.T.);
#818=ADVANCED_FACE('',(#102),#72,.F.);
#819=ADVANCED_FACE('',(#103,#19),#781,.T.);
#820=ADVANCED_FACE('',(#104),#73,.F.);
#821=ADVANCED_FACE('',(#105),#74,.F.);
#822=ADVANCED_FACE('',(#106),#75,.F.);
#823=ADVANCED_FACE('',(#107),#76,.F.);
#824=ADVANCED_FACE('',(#108),#782,.F.);
#825=ADVANCED_FACE('',(#109),#783,.F.);
#826=ADVANCED_FACE('',(#110),#784,.F.);
#827=ADVANCED_FACE('',(#111),#785,.F.);
#828=ADVANCED_FACE('',(#112),#786,.F.);
#829=ADVANCED_FACE('',(#113),#77,.T.);
#830=ADVANCED_FACE('',(#114),#787,.T.);
#831=ADVANCED_FACE('',(#115,#20,#21,#22,#23,#24),#788,.T.);
#832=ADVANCED_FACE('',(#116),#78,.T.);
#833=ADVANCED_FACE('',(#117,#25),#789,.T.);
#834=ADVANCED_FACE('',(#118),#79,.T.);
#835=ADVANCED_FACE('',(#119),#790,.T.);
#836=ADVANCED_FACE('',(#120),#80,.T.);
#837=ADVANCED_FACE('',(#121),#791,.T.);
#838=ADVANCED_FACE('',(#122),#792,.T.);
#839=ADVANCED_FACE('',(#123),#793,.T.);
#840=ADVANCED_FACE('',(#124),#794,.T.);
#841=ADVANCED_FACE('',(#125,#26),#795,.T.);
#842=ADVANCED_FACE('',(#126,#27,#28,#29,#30),#796,.F.);
#843=CLOSED_SHELL('',(#797,#798,#799,#800,#801,#802,#803,#804,#805,#806,
#807,#808,#809,#810,#811,#812,#813,#814,#815,#816,#817,#818,#819,#820,#821,
#822,#823,#824,#825,#826,#827,#828,#829,#830,#831,#832,#833,#834,#835,#836,
#837,#838,#839,#840,#841,#842));
#844=DERIVED_UNIT_ELEMENT(#846,1.);
#845=DERIVED_UNIT_ELEMENT(#1421,-3.);
#846=(
MASS_UNIT()
NAMED_UNIT(*)
SI_UNIT(.KILO.,.GRAM.)
);
#847=DERIVED_UNIT((#844,#845));
#848=MEASURE_REPRESENTATION_ITEM('density measure',
POSITIVE_RATIO_MEASURE(7850.),#847);
#849=PROPERTY_DEFINITION_REPRESENTATION(#854,#851);
#850=PROPERTY_DEFINITION_REPRESENTATION(#855,#852);
#851=REPRESENTATION('material name',(#853),#1418);
#852=REPRESENTATION('density',(#848),#1418);
#853=DESCRIPTIVE_REPRESENTATION_ITEM('Steel','Steel');
#854=PROPERTY_DEFINITION('material property','material name',#1428);
#855=PROPERTY_DEFINITION('material property','density of part',#1428);
#856=AXIS2_PLACEMENT_3D('',#1179,#937,#938);
#857=AXIS2_PLACEMENT_3D('',#1180,#939,#940);
#858=AXIS2_PLACEMENT_3D('',#1189,#945,#946);
#859=AXIS2_PLACEMENT_3D('',#1195,#950,#951);
#860=AXIS2_PLACEMENT_3D('',#1201,#955,#956);
#861=AXIS2_PLACEMENT_3D('',#1204,#959,#960);
#862=AXIS2_PLACEMENT_3D('',#1205,#961,#962);
#863=AXIS2_PLACEMENT_3D('',#1208,#963,#964);
#864=AXIS2_PLACEMENT_3D('',#1212,#966,#967);
#865=AXIS2_PLACEMENT_3D('',#1214,#969,#970);
#866=AXIS2_PLACEMENT_3D('',#1220,#974,#975);
#867=AXIS2_PLACEMENT_3D('',#1222,#976,#977);
#868=AXIS2_PLACEMENT_3D('',#1224,#978,#979);
#869=AXIS2_PLACEMENT_3D('',#1228,#981,#982);
#870=AXIS2_PLACEMENT_3D('',#1230,#984,#985);
#871=AXIS2_PLACEMENT_3D('',#1235,#988,#989);
#872=AXIS2_PLACEMENT_3D('',#1236,#990,#991);
#873=AXIS2_PLACEMENT_3D('',#1239,#992,#993);
#874=AXIS2_PLACEMENT_3D('',#1243,#995,#996);
#875=AXIS2_PLACEMENT_3D('',#1245,#998,#999);
#876=AXIS2_PLACEMENT_3D('',#1248,#1002,#1003);
#877=AXIS2_PLACEMENT_3D('',#1252,#1006,#1007);
#878=AXIS2_PLACEMENT_3D('',#1255,#1008,#1009);
#879=AXIS2_PLACEMENT_3D('',#1258,#1011,#1012);
#880=AXIS2_PLACEMENT_3D('',#1260,#1014,#1015);
#881=AXIS2_PLACEMENT_3D('',#1263,#1018,#1019);
#882=AXIS2_PLACEMENT_3D('',#1273,#1025,#1026);
#883=AXIS2_PLACEMENT_3D('',#1275,#1027,#1028);
#884=AXIS2_PLACEMENT_3D('',#1278,#1030,#1031);
#885=AXIS2_PLACEMENT_3D('',#1279,#1032,#1033);
#886=AXIS2_PLACEMENT_3D('',#1281,#1034,#1035);
#887=AXIS2_PLACEMENT_3D('',#1282,#1036,#1037);
#888=AXIS2_PLACEMENT_3D('',#1284,#1038,#1039);
#889=AXIS2_PLACEMENT_3D('',#1287,#1041,#1042);
#890=AXIS2_PLACEMENT_3D('',#1288,#1043,#1044);
#891=AXIS2_PLACEMENT_3D('',#1290,#1045,#1046);
#892=AXIS2_PLACEMENT_3D('',#1291,#1047,#1048);
#893=AXIS2_PLACEMENT_3D('',#1293,#1049,#1050);
#894=AXIS2_PLACEMENT_3D('',#1296,#1052,#1053);
#895=AXIS2_PLACEMENT_3D('',#1297,#1054,#1055);
#896=AXIS2_PLACEMENT_3D('',#1299,#1056,#1057);
#897=AXIS2_PLACEMENT_3D('',#1300,#1058,#1059);
#898=AXIS2_PLACEMENT_3D('',#1302,#1060,#1061);
#899=AXIS2_PLACEMENT_3D('',#1305,#1063,#1064);
#900=AXIS2_PLACEMENT_3D('',#1306,#1065,#1066);
#901=AXIS2_PLACEMENT_3D('',#1308,#1067,#1068);
#902=AXIS2_PLACEMENT_3D('',#1309,#1069,#1070);
#903=AXIS2_PLACEMENT_3D('',#1311,#1071,#1072);
#904=AXIS2_PLACEMENT_3D('',#1313,#1074,#1075);
#905=AXIS2_PLACEMENT_3D('',#1315,#1076,#1077);
#906=AXIS2_PLACEMENT_3D('',#1317,#1079,#1080);
#907=AXIS2_PLACEMENT_3D('',#1319,#1081,#1082);
#908=AXIS2_PLACEMENT_3D('',#1321,#1084,#1085);
#909=AXIS2_PLACEMENT_3D('',#1323,#1086,#1087);
#910=AXIS2_PLACEMENT_3D('',#1325,#1089,#1090);
#911=AXIS2_PLACEMENT_3D('',#1334,#1095,#1096);
#912=AXIS2_PLACEMENT_3D('',#1340,#1100,#1101);
#913=AXIS2_PLACEMENT_3D('',#1346,#1105,#1106);
#914=AXIS2_PLACEMENT_3D('',#1349,#1109,#1110);
#915=AXIS2_PLACEMENT_3D('',#1350,#1111,#1112);
#916=AXIS2_PLACEMENT_3D('',#1353,#1113,#1114);
#917=AXIS2_PLACEMENT_3D('',#1357,#1116,#1117);
#918=AXIS2_PLACEMENT_3D('',#1359,#1119,#1120);
#919=AXIS2_PLACEMENT_3D('',#1365,#1124,#1125);
#920=AXIS2_PLACEMENT_3D('',#1369,#1127,#1128);
#921=AXIS2_PLACEMENT_3D('',#1373,#1130,#1131);
#922=AXIS2_PLACEMENT_3D('',#1376,#1133,#1134);
#923=AXIS2_PLACEMENT_3D('',#1385,#1139,#1140);
#924=AXIS2_PLACEMENT_3D('',#1388,#1142,#1143);
#925=AXIS2_PLACEMENT_3D('',#1389,#1144,#1145);
#926=AXIS2_PLACEMENT_3D('',#1393,#1148,#1149);
#927=AXIS2_PLACEMENT_3D('',#1396,#1151,#1152);
#928=AXIS2_PLACEMENT_3D('',#1397,#1153,#1154);
#929=AXIS2_PLACEMENT_3D('',#1401,#1157,#1158);
#930=AXIS2_PLACEMENT_3D('',#1404,#1160,#1161);
#931=AXIS2_PLACEMENT_3D('',#1405,#1162,#1163);
#932=AXIS2_PLACEMENT_3D('',#1408,#1166,#1167);
#933=AXIS2_PLACEMENT_3D('',#1410,#1169,#1170);
#934=AXIS2_PLACEMENT_3D('',#1412,#1172,#1173);
#935=AXIS2_PLACEMENT_3D('',#1413,#1174,#1175);
#936=AXIS2_PLACEMENT_3D('',#1415,#1177,#1178);
#937=DIRECTION('axis',(0.,0.,1.));
#938=DIRECTION('refdir',(1.,0.,0.));
#939=DIRECTION('center_axis',(-1.,0.,0.));
#940=DIRECTION('ref_axis',(0.,1.,0.));
#941=DIRECTION('',(0.,1.,0.));
#942=DIRECTION('',(0.,0.,-1.));
#943=DIRECTION('',(0.,1.,0.));
#944=DIRECTION('',(0.,0.,-1.));
#945=DIRECTION('center_axis',(0.,-1.,0.));
#946=DIRECTION('ref_axis',(-1.,0.,0.));
#947=DIRECTION('',(-1.,0.,0.));
#948=DIRECTION('',(0.,0.,-1.));
#949=DIRECTION('',(-1.,0.,0.));
#950=DIRECTION('center_axis',(1.,0.,0.));
#951=DIRECTION('ref_axis',(0.,-1.,0.));
#952=DIRECTION('',(0.,-1.,0.));
#953=DIRECTION('',(0.,0.,-1.));
#954=DIRECTION('',(0.,-1.,0.));
#955=DIRECTION('center_axis',(0.,1.,0.));
#956=DIRECTION('ref_axis',(1.,0.,0.));
#957=DIRECTION('',(1.,0.,0.));
#958=DIRECTION('',(1.,0.,0.));
#959=DIRECTION('center_axis',(0.,0.,-1.));
#960=DIRECTION('ref_axis',(-1.,0.,0.));
#961=DIRECTION('center_axis',(0.,-1.,0.));
#962=DIRECTION('ref_axis',(0.,0.,1.));
#963=DIRECTION('center_axis',(0.,1.,0.));
#964=DIRECTION('ref_axis',(0.,0.,1.));
#965=DIRECTION('',(0.,-1.,0.));
#966=DIRECTION('center_axis',(0.,-1.,0.));
#967=DIRECTION('ref_axis',(0.,0.,1.));
#968=DIRECTION('',(0.,-1.,0.));
#969=DIRECTION('center_axis',(1.,0.,0.));
#970=DIRECTION('ref_axis',(0.,0.,1.));
#971=DIRECTION('',(0.,0.,-1.));
#972=DIRECTION('',(0.,0.,1.));
#973=DIRECTION('',(0.,-1.,0.));
#974=DIRECTION('center_axis',(0.,-1.,0.));
#975=DIRECTION('ref_axis',(1.,0.,0.));
#976=DIRECTION('center_axis',(0.,1.,0.));
#977=DIRECTION('ref_axis',(1.,0.,0.));
#978=DIRECTION('center_axis',(0.,-1.,0.));
#979=DIRECTION('ref_axis',(1.,0.,0.));
#980=DIRECTION('',(0.,-1.,0.));
#981=DIRECTION('center_axis',(0.,-1.,0.));
#982=DIRECTION('ref_axis',(1.,0.,0.));
#983=DIRECTION('',(0.,-1.,0.));
#984=DIRECTION('center_axis',(0.,1.,0.));
#985=DIRECTION('ref_axis',(-1.,0.,0.));
#986=DIRECTION('',(-1.,0.,0.));
#987=DIRECTION('',(1.,0.,0.));
#988=DIRECTION('center_axis',(0.,-1.,0.));
#989=DIRECTION('ref_axis',(0.,0.,-1.));
#990=DIRECTION('center_axis',(0.,-1.,0.));
#991=DIRECTION('ref_axis',(-1.,0.,0.));
#992=DIRECTION('center_axis',(0.,1.,0.));
#993=DIRECTION('ref_axis',(-1.,0.,0.));
#994=DIRECTION('',(0.,-1.,0.));
#995=DIRECTION('center_axis',(0.,-1.,0.));
#996=DIRECTION('ref_axis',(-1.,0.,0.));
#997=DIRECTION('',(0.,-1.,0.));
#998=DIRECTION('center_axis',(0.,0.,1.));
#999=DIRECTION('ref_axis',(-1.,0.,0.));
#1000=DIRECTION('',(1.,0.,0.));
#1001=DIRECTION('',(-1.,0.,0.));
#1002=DIRECTION('center_axis',(0.,0.,-1.));
#1003=DIRECTION('ref_axis',(1.,0.,0.));
#1004=DIRECTION('',(1.,0.,0.));
#1005=DIRECTION('',(0.,-1.,0.));
#1006=DIRECTION('center_axis',(0.,-1.,0.));
#1007=DIRECTION('ref_axis',(0.,0.,-1.));
#1008=DIRECTION('center_axis',(0.,1.,0.));
#1009=DIRECTION('ref_axis',(0.,0.,-1.));
#1010=DIRECTION('',(0.,1.,0.));
#1011=DIRECTION('center_axis',(0.,-1.,0.));
#1012=DIRECTION('ref_axis',(0.,0.,-1.));
#1013=DIRECTION('',(0.,-1.,0.));
#1014=DIRECTION('center_axis',(-1.,0.,0.));
#1015=DIRECTION('ref_axis',(0.,0.,-1.));
#1016=DIRECTION('',(0.,0.,1.));
#1017=DIRECTION('',(0.,0.,-1.));
#1018=DIRECTION('center_axis',(0.,0.,1.));
#1019=DIRECTION('ref_axis',(1.,0.,0.));
#1020=DIRECTION('',(1.,0.,0.));
#1021=DIRECTION('',(0.,1.,0.));
#1022=DIRECTION('',(-1.,0.,0.));
#1023=DIRECTION('',(0.,-1.,0.));
#1024=DIRECTION('',(1.,0.,0.));
#1025=DIRECTION('center_axis',(0.,0.,1.));
#1026=DIRECTION('ref_axis',(1.,0.,0.));
#1027=DIRECTION('center_axis',(0.,0.,1.));
#1028=DIRECTION('ref_axis',(1.,0.,0.));
#1029=DIRECTION('',(0.,0.,1.));
#1030=DIRECTION('center_axis',(0.,0.,1.));
#1031=DIRECTION('ref_axis',(1.,0.,0.));
#1032=DIRECTION('center_axis',(0.,0.,-1.));
#1033=DIRECTION('ref_axis',(1.,0.,0.));
#1034=DIRECTION('center_axis',(0.,0.,-1.));
#1035=DIRECTION('ref_axis',(-1.,0.,0.));
#1036=DIRECTION('center_axis',(0.,0.,1.));
#1037=DIRECTION('ref_axis',(1.,0.,0.));
#1038=DIRECTION('center_axis',(0.,0.,1.));
#1039=DIRECTION('ref_axis',(1.,0.,0.));
#1040=DIRECTION('',(0.,0.,1.));
#1041=DIRECTION('center_axis',(0.,0.,1.));
#1042=DIRECTION('ref_axis',(1.,0.,0.));
#1043=DIRECTION('center_axis',(0.,0.,-1.));
#1044=DIRECTION('ref_axis',(1.,0.,0.));
#1045=DIRECTION('center_axis',(0.,0.,-1.));
#1046=DIRECTION('ref_axis',(-1.,0.,0.));
#1047=DIRECTION('center_axis',(0.,0.,1.));
#1048=DIRECTION('ref_axis',(1.,0.,0.));
#1049=DIRECTION('center_axis',(0.,0.,1.));
#1050=DIRECTION('ref_axis',(1.,0.,0.));
#1051=DIRECTION('',(0.,0.,1.));
#1052=DIRECTION('center_axis',(0.,0.,1.));
#1053=DIRECTION('ref_axis',(1.,0.,0.));
#1054=DIRECTION('center_axis',(0.,0.,-1.));
#1055=DIRECTION('ref_axis',(1.,0.,0.));
#1056=DIRECTION('center_axis',(0.,0.,-1.));
#1057=DIRECTION('ref_axis',(-1.,0.,0.));
#1058=DIRECTION('center_axis',(0.,0.,1.));
#1059=DIRECTION('ref_axis',(1.,0.,0.));
#1060=DIRECTION('center_axis',(0.,0.,1.));
#1061=DIRECTION('ref_axis',(1.,0.,0.));
#1062=DIRECTION('',(0.,0.,1.));
#1063=DIRECTION('center_axis',(0.,0.,1.));
#1064=DIRECTION('ref_axis',(1.,0.,0.));
#1065=DIRECTION('center_axis',(0.,0.,-1.));
#1066=DIRECTION('ref_axis',(1.,0.,0.));
#1067=DIRECTION('center_axis',(0.,0.,-1.));
#1068=DIRECTION('ref_axis',(-1.,0.,0.));
#1069=DIRECTION('center_axis',(0.,0.,-1.));
#1070=DIRECTION('ref_axis',(-1.,0.,0.));
#1071=DIRECTION('center_axis',(0.,0.,-1.));
#1072=DIRECTION('ref_axis',(-1.,0.,0.));
#1073=DIRECTION('',(0.,0.,-1.));
#1074=DIRECTION('center_axis',(0.,0.,-1.));
#1075=DIRECTION('ref_axis',(-1.,0.,0.));
#1076=DIRECTION('center_axis',(0.,0.,-1.));
#1077=DIRECTION('ref_axis',(-1.,0.,0.));
#1078=DIRECTION('',(0.,0.,-1.));
#1079=DIRECTION('center_axis',(0.,0.,-1.));
#1080=DIRECTION('ref_axis',(-1.,0.,0.));
#1081=DIRECTION('center_axis',(0.,0.,-1.));
#1082=DIRECTION('ref_axis',(-1.,0.,0.));
#1083=DIRECTION('',(0.,0.,-1.));
#1084=DIRECTION('center_axis',(0.,0.,-1.));
#1085=DIRECTION('ref_axis',(-1.,0.,0.));
#1086=DIRECTION('center_axis',(0.,0.,-1.));
#1087=DIRECTION('ref_axis',(-1.,0.,0.));
#1088=DIRECTION('',(0.,0.,-1.));
#1089=DIRECTION('center_axis',(1.,0.,0.));
#1090=DIRECTION('ref_axis',(0.,0.,-1.));
#1091=DIRECTION('',(0.,0.,-1.));
#1092=DIRECTION('',(0.,1.,0.));
#1093=DIRECTION('',(0.,0.,-1.));
#1094=DIRECTION('',(0.,1.,0.));
#1095=DIRECTION('center_axis',(0.,0.,1.));
#1096=DIRECTION('ref_axis',(1.,7.039457583674E-17,0.));
#1097=DIRECTION('',(1.,7.63039879467461E-17,0.));
#1098=DIRECTION('',(0.,1.,0.));
#1099=DIRECTION('',(1.,7.039457583674E-17,0.));
#1100=DIRECTION('center_axis',(-1.,0.,0.));
#1101=DIRECTION('ref_axis',(0.,0.,1.));
#1102=DIRECTION('',(0.,0.,1.));
#1103=DIRECTION('',(0.,1.,0.));
#1104=DIRECTION('',(0.,0.,1.));
#1105=DIRECTION('center_axis',(0.,0.,-1.));
#1106=DIRECTION('ref_axis',(-1.,-7.039457583674E-17,0.));
#1107=DIRECTION('',(-1.,-7.63039879467461E-17,0.));
#1108=DIRECTION('',(-1.,-7.039457583674E-17,0.));
#1109=DIRECTION('center_axis',(0.,1.,0.));
#1110=DIRECTION('ref_axis',(0.,0.,1.));
#1111=DIRECTION('center_axis',(0.,0.,1.));
#1112=DIRECTION('ref_axis',(-0.707106781186548,-0.707106781186548,0.));
#1113=DIRECTION('center_axis',(0.,0.,-1.));
#1114=DIRECTION('ref_axis',(-0.707106781186548,-0.707106781186548,0.));
#1115=DIRECTION('',(0.,0.,-1.));
#1116=DIRECTION('center_axis',(0.,0.,1.));
#1117=DIRECTION('ref_axis',(-0.707106781186548,-0.707106781186548,0.));
#1118=DIRECTION('',(0.,0.,1.));
#1119=DIRECTION('center_axis',(-1.,0.,0.));
#1120=DIRECTION('ref_axis',(0.,-1.,0.));
#1121=DIRECTION('',(0.,-1.,0.));
#1122=DIRECTION('',(0.,0.,1.));
#1123=DIRECTION('',(0.,-1.,0.));
#1124=DIRECTION('center_axis',(0.,0.,1.));
#1125=DIRECTION('ref_axis',(1.,0.,0.));
#1126=DIRECTION('',(1.,7.63039879467461E-17,0.));
#1127=DIRECTION('center_axis',(0.,0.,-1.));
#1128=DIRECTION('ref_axis',(0.707106781186548,-0.707106781186547,0.));
#1129=DIRECTION('',(0.,1.,0.));
#1130=DIRECTION('center_axis',(0.,0.,-1.));
#1131=DIRECTION('ref_axis',(0.70710678118655,0.707106781186545,0.));
#1132=DIRECTION('',(-1.,0.,0.));
#1133=DIRECTION('center_axis',(0.,0.,-1.));
#1134=DIRECTION('ref_axis',(-0.707106781186547,0.707106781186548,0.));
#1135=DIRECTION('',(0.,1.,0.));
#1136=DIRECTION('',(1.,0.,0.));
#1137=DIRECTION('',(0.,-1.,0.));
#1138=DIRECTION('',(-1.,0.,0.));
#1139=DIRECTION('center_axis',(0.,0.,1.));
#1140=DIRECTION('ref_axis',(-0.707106781186547,0.707106781186548,0.));
#1141=DIRECTION('',(0.,0.,-1.));
#1142=DIRECTION('center_axis',(0.,0.,1.));
#1143=DIRECTION('ref_axis',(-0.707106781186547,0.707106781186548,0.));
#1144=DIRECTION('center_axis',(0.,1.,0.));
#1145=DIRECTION('ref_axis',(-1.,0.,0.));
#1146=DIRECTION('',(0.,0.,1.));
#1147=DIRECTION('',(-1.,0.,0.));
#1148=DIRECTION('center_axis',(0.,0.,1.));
#1149=DIRECTION('ref_axis',(0.70710678118655,0.707106781186545,0.));
#1150=DIRECTION('',(0.,0.,-1.));
#1151=DIRECTION('center_axis',(0.,0.,1.));
#1152=DIRECTION('ref_axis',(0.70710678118655,0.707106781186545,0.));
#1153=DIRECTION('center_axis',(1.,0.,0.));
#1154=DIRECTION('ref_axis',(0.,1.,0.));
#1155=DIRECTION('',(0.,0.,1.));
#1156=DIRECTION('',(0.,1.,0.));
#1157=DIRECTION('center_axis',(0.,0.,1.));
#1158=DIRECTION('ref_axis',(0.707106781186548,-0.707106781186547,0.));
#1159=DIRECTION('',(0.,0.,-1.));
#1160=DIRECTION('center_axis',(0.,0.,1.));
#1161=DIRECTION('ref_axis',(0.707106781186548,-0.707106781186547,0.));
#1162=DIRECTION('center_axis',(1.,0.,0.));
#1163=DIRECTION('ref_axis',(0.,1.,0.));
#1164=DIRECTION('',(0.,0.,1.));
#1165=DIRECTION('',(0.,0.,1.));
#1166=DIRECTION('center_axis',(0.,-1.,0.));
#1167=DIRECTION('ref_axis',(1.,0.,0.));
#1168=DIRECTION('',(0.,0.,1.));
#1169=DIRECTION('center_axis',(0.,1.,0.));
#1170=DIRECTION('ref_axis',(-1.,0.,0.));
#1171=DIRECTION('',(0.,0.,1.));
#1172=DIRECTION('center_axis',(-1.,0.,0.));
#1173=DIRECTION('ref_axis',(0.,-1.,0.));
#1174=DIRECTION('center_axis',(7.63039879467461E-17,-1.,0.));
#1175=DIRECTION('ref_axis',(1.,7.63039879467461E-17,0.));
#1176=DIRECTION('',(1.,7.63039879467461E-17,0.));
#1177=DIRECTION('center_axis',(0.,0.,1.));
#1178=DIRECTION('ref_axis',(1.,0.,0.));
#1179=CARTESIAN_POINT('',(0.,0.,0.));
#1180=CARTESIAN_POINT('Origin',(57.055,25.27,3.));
#1181=CARTESIAN_POINT('',(57.055,25.27,3.));
#1182=CARTESIAN_POINT('',(57.055,39.43,3.));
#1183=CARTESIAN_POINT('',(57.055,28.86,3.));
#1184=CARTESIAN_POINT('',(57.055,25.27,1.));
#1185=CARTESIAN_POINT('',(57.055,25.27,3.));
#1186=CARTESIAN_POINT('',(57.055,39.43,1.));
#1187=CARTESIAN_POINT('',(57.055,25.27,1.));
#1188=CARTESIAN_POINT('',(57.055,39.43,3.));
#1189=CARTESIAN_POINT('Origin',(63.595,25.27,3.));
#1190=CARTESIAN_POINT('',(63.595,25.27,3.));
#1191=CARTESIAN_POINT('',(56.8975,25.27,3.));
#1192=CARTESIAN_POINT('',(63.595,25.27,1.));
#1193=CARTESIAN_POINT('',(63.595,25.27,3.));
#1194=CARTESIAN_POINT('',(63.595,25.27,1.));
#1195=CARTESIAN_POINT('Origin',(63.595,39.43,3.));
#1196=CARTESIAN_POINT('',(63.595,39.43,3.));
#1197=CARTESIAN_POINT('',(63.595,35.94,3.));
#1198=CARTESIAN_POINT('',(63.595,39.43,1.));
#1199=CARTESIAN_POINT('',(63.595,39.43,3.));
#1200=CARTESIAN_POINT('',(63.595,39.43,1.));
#1201=CARTESIAN_POINT('Origin',(57.055,39.43,3.));
#1202=CARTESIAN_POINT('',(53.6275,39.43,3.));
#1203=CARTESIAN_POINT('',(57.055,39.43,1.));
#1204=CARTESIAN_POINT('Origin',(60.325,32.35,1.));
#1205=CARTESIAN_POINT('Origin',(80.4387500000009,72.9,5.44500000000002));
#1206=CARTESIAN_POINT('',(80.4387500000009,64.9,9.19500000000002));
#1207=CARTESIAN_POINT('',(84.1887500000009,64.9,5.44500000000002));
#1208=CARTESIAN_POINT('Origin',(80.4387500000009,64.9,5.44500000000002));
#1209=CARTESIAN_POINT('',(80.4387500000009,72.9,9.19500000000002));
#1210=CARTESIAN_POINT('',(80.4387500000009,72.9,9.19500000000002));
#1211=CARTESIAN_POINT('',(84.1887500000009,72.9,5.44500000000002));
#1212=CARTESIAN_POINT('Origin',(80.4387500000009,72.9,5.44500000000002));
#1213=CARTESIAN_POINT('',(84.1887500000009,72.9,5.44500000000002));
#1214=CARTESIAN_POINT('Origin',(84.1887500000009,72.9,4.73500000000002));
#1215=CARTESIAN_POINT('',(84.1887500000009,64.9,4.73500000000002));
#1216=CARTESIAN_POINT('',(84.1887500000009,64.9,2.36750000000001));
#1217=CARTESIAN_POINT('',(84.1887500000009,72.9,4.73500000000002));
#1218=CARTESIAN_POINT('',(84.1887500000009,72.9,2.36750000000001));
#1219=CARTESIAN_POINT('',(84.1887500000009,72.9,4.73500000000002));
#1220=CARTESIAN_POINT('Origin',(80.4387500000009,72.9,4.73500000000002));
#1221=CARTESIAN_POINT('',(83.7632462024352,64.9,3.));
#1222=CARTESIAN_POINT('Origin',(80.4387500000009,64.9,4.73500000000002));
#1223=CARTESIAN_POINT('',(80.4387500000009,72.9,0.985000000000023));
#1224=CARTESIAN_POINT('Origin',(80.4387500000009,72.9,4.73500000000002));
#1225=CARTESIAN_POINT('',(80.4387500000009,37.9,0.985000000000023));
#1226=CARTESIAN_POINT('',(80.4387500000009,72.9,0.985000000000023));
#1227=CARTESIAN_POINT('',(83.7632462024352,37.9,3.));
#1228=CARTESIAN_POINT('Origin',(80.4387500000009,37.9,4.73500000000002));
#1229=CARTESIAN_POINT('',(83.7632462024352,72.9,3.));
#1230=CARTESIAN_POINT('Origin',(77.2187500000009,37.9,5.09000000000002));
#1231=CARTESIAN_POINT('',(70.6742537975666,37.9,3.));
#1232=CARTESIAN_POINT('',(63.7093750000005,37.9,3.));
#1233=CARTESIAN_POINT('',(73.9987500000009,37.9,0.985000000000023));
#1234=CARTESIAN_POINT('',(80.4387500000009,37.9,0.985000000000023));
#1235=CARTESIAN_POINT('Origin',(73.9987500000009,37.9,4.73500000000002));
#1236=CARTESIAN_POINT('Origin',(73.9987500000009,72.9,5.44500000000002));
#1237=CARTESIAN_POINT('',(70.2487500000009,64.9,5.44500000000002));
#1238=CARTESIAN_POINT('',(73.9987500000009,64.9,9.19500000000002));
#1239=CARTESIAN_POINT('Origin',(73.9987500000009,64.9,5.44500000000002));
#1240=CARTESIAN_POINT('',(70.2487500000009,72.9,5.44500000000002));
#1241=CARTESIAN_POINT('',(70.2487500000009,72.9,5.44500000000002));
#1242=CARTESIAN_POINT('',(73.9987500000009,72.9,9.19500000000002));
#1243=CARTESIAN_POINT('Origin',(73.9987500000009,72.9,5.44500000000002));
#1244=CARTESIAN_POINT('',(73.9987500000009,72.9,9.19500000000002));
#1245=CARTESIAN_POINT('Origin',(80.4387500000009,72.9,9.19500000000002));
#1246=CARTESIAN_POINT('',(40.2193750000005,64.9,9.19500000000002));
#1247=CARTESIAN_POINT('',(94.4193750000005,72.9,9.19500000000002));
#1248=CARTESIAN_POINT('Origin',(73.9987500000009,72.9,0.985000000000023));
#1249=CARTESIAN_POINT('',(73.9987500000009,72.9,0.985000000000023));
#1250=CARTESIAN_POINT('',(91.1993750000005,72.9,0.985000000000023));
#1251=CARTESIAN_POINT('',(73.9987500000009,72.9,0.985000000000023));
#1252=CARTESIAN_POINT('Origin',(73.9987500000009,72.9,4.73500000000002));
#1253=CARTESIAN_POINT('',(70.6742537975666,64.9,3.));
#1254=CARTESIAN_POINT('',(70.2487500000009,64.9,4.73500000000002));
#1255=CARTESIAN_POINT('Origin',(73.9987500000009,64.9,4.73500000000002));
#1256=CARTESIAN_POINT('',(70.6742537975666,72.9,3.));
#1257=CARTESIAN_POINT('',(70.2487500000009,72.9,4.73500000000002));
#1258=CARTESIAN_POINT('Origin',(73.9987500000009,72.9,4.73500000000002));
#1259=CARTESIAN_POINT('',(70.2487500000009,72.9,4.73500000000002));
#1260=CARTESIAN_POINT('Origin',(70.2487500000009,72.9,5.44500000000002));
#1261=CARTESIAN_POINT('',(70.2487500000009,64.9,2.72250000000001));
#1262=CARTESIAN_POINT('',(70.2487500000009,72.9,2.72250000000001));
#1263=CARTESIAN_POINT('Origin',(50.2,32.45,3.));
#1264=CARTESIAN_POINT('',(0.,64.9,3.));
#1265=CARTESIAN_POINT('',(25.1,64.9,3.));
#1266=CARTESIAN_POINT('',(0.,0.,3.));
#1267=CARTESIAN_POINT('',(0.,16.225,3.));
#1268=CARTESIAN_POINT('',(100.4,0.,3.));
#1269=CARTESIAN_POINT('',(75.3,0.,3.));
#1270=CARTESIAN_POINT('',(100.4,64.9,3.));
#1271=CARTESIAN_POINT('',(100.4,48.675,3.));
#1272=CARTESIAN_POINT('',(25.1,64.9,3.));
#1273=CARTESIAN_POINT('Origin',(104.400000059605,-4.00000005960462,0.));
#1274=CARTESIAN_POINT('',(102.050000059605,-4.00000005960462,0.));
#1275=CARTESIAN_POINT('Origin',(104.400000059605,-4.00000005960462,0.));
#1276=CARTESIAN_POINT('',(102.050000059605,-4.00000005960462,4.));
#1277=CARTESIAN_POINT('',(102.050000059605,-4.00000005960462,0.));
#1278=CARTESIAN_POINT('Origin',(104.400000059605,-4.00000005960462,4.));
#1279=CARTESIAN_POINT('Origin',(104.400000059605,-4.00000005960462,4.));
#1280=CARTESIAN_POINT('',(106.100000059605,-4.00000005960464,4.));
#1281=CARTESIAN_POINT('Origin',(104.400000059605,-4.00000005960464,4.));
#1282=CARTESIAN_POINT('Origin',(104.400000059605,68.9000000596046,0.));
#1283=CARTESIAN_POINT('',(102.050000059605,68.9000000596046,0.));
#1284=CARTESIAN_POINT('Origin',(104.400000059605,68.9000000596046,0.));
#1285=CARTESIAN_POINT('',(102.050000059605,68.9000000596046,4.));
#1286=CARTESIAN_POINT('',(102.050000059605,68.9000000596046,0.));
#1287=CARTESIAN_POINT('Origin',(104.400000059605,68.9000000596046,4.));
#1288=CARTESIAN_POINT('Origin',(104.400000059605,68.9000000596046,4.));
#1289=CARTESIAN_POINT('',(106.100000059605,68.9000000596048,4.));
#1290=CARTESIAN_POINT('Origin',(104.400000059605,68.9000000596048,4.));
#1291=CARTESIAN_POINT('Origin',(-4.00000005960464,-4.00000005960464,0.));
#1292=CARTESIAN_POINT('',(-6.35000005960464,-4.00000005960464,0.));
#1293=CARTESIAN_POINT('Origin',(-4.00000005960464,-4.00000005960464,0.));
#1294=CARTESIAN_POINT('',(-6.35000005960464,-4.00000005960464,4.));
#1295=CARTESIAN_POINT('',(-6.35000005960464,-4.00000005960465,0.));
#1296=CARTESIAN_POINT('Origin',(-4.00000005960464,-4.00000005960464,4.));
#1297=CARTESIAN_POINT('Origin',(-4.00000005960464,-4.00000005960464,4.));
#1298=CARTESIAN_POINT('',(-2.30000005960464,-4.00000005960464,4.));
#1299=CARTESIAN_POINT('Origin',(-4.00000005960464,-4.00000005960464,4.));
#1300=CARTESIAN_POINT('Origin',(-4.00000005960465,68.9000000596047,0.));
#1301=CARTESIAN_POINT('',(-6.35000005960465,68.9000000596047,0.));
#1302=CARTESIAN_POINT('Origin',(-4.00000005960465,68.9000000596047,0.));
#1303=CARTESIAN_POINT('',(-6.35000005960465,68.9000000596047,4.));
#1304=CARTESIAN_POINT('',(-6.35000005960465,68.9000000596047,0.));
#1305=CARTESIAN_POINT('Origin',(-4.00000005960465,68.9000000596047,4.));
#1306=CARTESIAN_POINT('Origin',(-4.00000005960465,68.9000000596047,4.));
#1307=CARTESIAN_POINT('',(-2.30000005960469,68.9000000596047,4.));
#1308=CARTESIAN_POINT('Origin',(-4.00000005960469,68.9000000596047,4.));
#1309=CARTESIAN_POINT('Origin',(104.400000059605,68.9000000596048,14.));
#1310=CARTESIAN_POINT('',(106.100000059605,68.9000000596048,14.));
#1311=CARTESIAN_POINT('Origin',(104.400000059605,68.9000000596048,14.));
#1312=CARTESIAN_POINT('',(106.100000059605,68.9000000596048,14.));
#1313=CARTESIAN_POINT('Origin',(104.400000059605,-4.00000005960464,14.));
#1314=CARTESIAN_POINT('',(106.100000059605,-4.00000005960464,14.));
#1315=CARTESIAN_POINT('Origin',(104.400000059605,-4.00000005960464,14.));
#1316=CARTESIAN_POINT('',(106.100000059605,-4.00000005960464,14.));
#1317=CARTESIAN_POINT('Origin',(-4.00000005960469,68.9000000596047,14.));
#1318=CARTESIAN_POINT('',(-2.30000005960469,68.9000000596047,14.));
#1319=CARTESIAN_POINT('Origin',(-4.00000005960469,68.9000000596047,14.));
#1320=CARTESIAN_POINT('',(-2.30000005960469,68.9000000596047,14.));
#1321=CARTESIAN_POINT('Origin',(-4.00000005960464,-4.00000005960464,14.));
#1322=CARTESIAN_POINT('',(-2.30000005960464,-4.00000005960464,14.));
#1323=CARTESIAN_POINT('Origin',(-4.00000005960464,-4.00000005960464,14.));
#1324=CARTESIAN_POINT('',(-2.30000005960464,-4.00000005960464,14.));
#1325=CARTESIAN_POINT('Origin',(102.4,-8.,11.));
#1326=CARTESIAN_POINT('',(102.4,-8.,11.));
#1327=CARTESIAN_POINT('',(102.4,-8.,3.));
#1328=CARTESIAN_POINT('',(102.4,-8.,5.5));
#1329=CARTESIAN_POINT('',(102.4,-7.5,11.));
#1330=CARTESIAN_POINT('',(102.4,-8.,11.));
#1331=CARTESIAN_POINT('',(102.4,-7.5,3.));
#1332=CARTESIAN_POINT('',(102.4,-7.5,11.));
#1333=CARTESIAN_POINT('',(102.4,-8.,3.));
#1334=CARTESIAN_POINT('Origin',(-2.,-8.,11.));
#1335=CARTESIAN_POINT('',(-2.,-8.,11.));
#1336=CARTESIAN_POINT('',(-5.,-8.00000000000001,11.));
#1337=CARTESIAN_POINT('',(-1.99999999999999,-7.5,11.));
#1338=CARTESIAN_POINT('',(-2.,-8.,11.));
#1339=CARTESIAN_POINT('',(-2.,-7.5,11.));
#1340=CARTESIAN_POINT('Origin',(-2.,-8.,3.));
#1341=CARTESIAN_POINT('',(-2.,-8.,3.));
#1342=CARTESIAN_POINT('',(-2.,-8.00000000000001,1.5));
#1343=CARTESIAN_POINT('',(-1.99999999999999,-7.5,3.));
#1344=CARTESIAN_POINT('',(-2.,-8.,3.));
#1345=CARTESIAN_POINT('',(-2.,-7.5,3.));
#1346=CARTESIAN_POINT('Origin',(102.4,-8.,3.));
#1347=CARTESIAN_POINT('',(47.2,-8.,3.));
#1348=CARTESIAN_POINT('',(102.4,-7.5,3.));
#1349=CARTESIAN_POINT('Origin',(50.2,-7.5,7.));
#1350=CARTESIAN_POINT('Origin',(-5.,-5.,0.));
#1351=CARTESIAN_POINT('',(-5.,-8.00000000000001,14.));
#1352=CARTESIAN_POINT('',(-8.,-5.,14.));
#1353=CARTESIAN_POINT('Origin',(-5.,-5.,14.));
#1354=CARTESIAN_POINT('',(-8.,-5.,0.));
#1355=CARTESIAN_POINT('',(-8.,-5.,0.));
#1356=CARTESIAN_POINT('',(-5.,-8.00000000000001,0.));
#1357=CARTESIAN_POINT('Origin',(-5.,-5.,0.));
#1358=CARTESIAN_POINT('',(-5.,-8.00000000000001,0.));
#1359=CARTESIAN_POINT('Origin',(-8.,72.9,0.));
#1360=CARTESIAN_POINT('',(-8.,69.9,14.));
#1361=CARTESIAN_POINT('',(-8.,72.9,14.));
#1362=CARTESIAN_POINT('',(-8.,69.9,0.));
#1363=CARTESIAN_POINT('',(-8.,69.9,0.));
#1364=CARTESIAN_POINT('',(-8.,72.9,0.));
#1365=CARTESIAN_POINT('Origin',(50.2,32.45,14.));
#1366=CARTESIAN_POINT('',(105.4,-8.,14.));
#1367=CARTESIAN_POINT('',(-8.,-8.00000000000001,14.));
#1368=CARTESIAN_POINT('',(108.4,-5.,14.));
#1369=CARTESIAN_POINT('Origin',(105.4,-5.,14.));
#1370=CARTESIAN_POINT('',(108.4,69.9,14.));
#1371=CARTESIAN_POINT('',(108.4,-8.,14.));
#1372=CARTESIAN_POINT('',(105.4,72.9,14.));
#1373=CARTESIAN_POINT('Origin',(105.4,69.9,14.));
#1374=CARTESIAN_POINT('',(-5.,72.9,14.));
#1375=CARTESIAN_POINT('',(108.4,72.9,14.));
#1376=CARTESIAN_POINT('Origin',(-5.,69.9,14.));
#1377=CARTESIAN_POINT('',(0.,0.,14.));
#1378=CARTESIAN_POINT('',(0.,64.9,14.));
#1379=CARTESIAN_POINT('',(0.,64.9,14.));
#1380=CARTESIAN_POINT('',(100.4,64.9,14.));
#1381=CARTESIAN_POINT('',(100.4,64.9,14.));
#1382=CARTESIAN_POINT('',(100.4,0.,14.));
#1383=CARTESIAN_POINT('',(100.4,0.,14.));
#1384=CARTESIAN_POINT('',(0.,0.,14.));
#1385=CARTESIAN_POINT('Origin',(-5.,69.9,0.));
#1386=CARTESIAN_POINT('',(-5.,72.9,0.));
#1387=CARTESIAN_POINT('',(-5.,72.9,0.));
#1388=CARTESIAN_POINT('Origin',(-5.,69.9,0.));
#1389=CARTESIAN_POINT('Origin',(108.4,72.9,0.));
#1390=CARTESIAN_POINT('',(105.4,72.9,0.));
#1391=CARTESIAN_POINT('',(105.4,72.9,0.));
#1392=CARTESIAN_POINT('',(108.4,72.9,0.));
#1393=CARTESIAN_POINT('Origin',(105.4,69.9,0.));
#1394=CARTESIAN_POINT('',(108.4,69.9,0.));
#1395=CARTESIAN_POINT('',(108.4,69.9,0.));
#1396=CARTESIAN_POINT('Origin',(105.4,69.9,0.));
#1397=CARTESIAN_POINT('Origin',(108.4,-8.,0.));
#1398=CARTESIAN_POINT('',(108.4,-5.,0.));
#1399=CARTESIAN_POINT('',(108.4,-5.,0.));
#1400=CARTESIAN_POINT('',(108.4,-8.,0.));
#1401=CARTESIAN_POINT('Origin',(105.4,-5.,0.));
#1402=CARTESIAN_POINT('',(105.4,-8.,0.));
#1403=CARTESIAN_POINT('',(105.4,-8.,0.));
#1404=CARTESIAN_POINT('Origin',(105.4,-5.,0.));
#1405=CARTESIAN_POINT('Origin',(0.,0.,0.));
#1406=CARTESIAN_POINT('',(0.,64.9,0.));
#1407=CARTESIAN_POINT('',(0.,0.,0.));
#1408=CARTESIAN_POINT('Origin',(0.,64.9,0.));
#1409=CARTESIAN_POINT('',(100.4,64.9,0.));
#1410=CARTESIAN_POINT('Origin',(100.4,0.,0.));
#1411=CARTESIAN_POINT('',(100.4,0.,0.));
#1412=CARTESIAN_POINT('Origin',(100.4,64.9,0.));
#1413=CARTESIAN_POINT('Origin',(-8.,-8.00000000000001,0.));
#1414=CARTESIAN_POINT('',(-8.,-8.00000000000001,0.));
#1415=CARTESIAN_POINT('Origin',(50.2,32.45,0.));
#1416=UNCERTAINTY_MEASURE_WITH_UNIT(LENGTH_MEASURE(0.01),#1420,
'DISTANCE_ACCURACY_VALUE',
'Maximum model space distance between geometric entities at asserted c
onnectivities');
#1417=UNCERTAINTY_MEASURE_WITH_UNIT(LENGTH_MEASURE(0.01),#1420,
'DISTANCE_ACCURACY_VALUE',
'Maximum model space distance between geometric entities at asserted c
onnectivities');
#1418=(
GEOMETRIC_REPRESENTATION_CONTEXT(3)
GLOBAL_UNCERTAINTY_ASSIGNED_CONTEXT((#1416))
GLOBAL_UNIT_ASSIGNED_CONTEXT((#1420,#1422,#1423))
REPRESENTATION_CONTEXT('','3D')
);
#1419=(
GEOMETRIC_REPRESENTATION_CONTEXT(3)
GLOBAL_UNCERTAINTY_ASSIGNED_CONTEXT((#1417))
GLOBAL_UNIT_ASSIGNED_CONTEXT((#1420,#1422,#1423))
REPRESENTATION_CONTEXT('','3D')
);
#1420=(
LENGTH_UNIT()
NAMED_UNIT(*)
SI_UNIT(.MILLI.,.METRE.)
);
#1421=(
LENGTH_UNIT()
NAMED_UNIT(*)
SI_UNIT($,.METRE.)
);
#1422=(
NAMED_UNIT(*)
PLANE_ANGLE_UNIT()
SI_UNIT($,.RADIAN.)
);
#1423=(
NAMED_UNIT(*)
SI_UNIT($,.STERADIAN.)
SOLID_ANGLE_UNIT()
);
#1424=SHAPE_DEFINITION_REPRESENTATION(#1425,#1426);
#1425=PRODUCT_DEFINITION_SHAPE('',$,#1428);
#1426=SHAPE_REPRESENTATION('',(#856),#1418);
#1427=PRODUCT_DEFINITION_CONTEXT('part definition',#1432,'design');
#1428=PRODUCT_DEFINITION('Shell bottom','Shell bottom',#1429,#1427);
#1429=PRODUCT_DEFINITION_FORMATION('',$,#1434);
#1430=PRODUCT_RELATED_PRODUCT_CATEGORY('Shell bottom','Shell bottom',(#1434));
#1431=APPLICATION_PROTOCOL_DEFINITION('international standard',
'automotive_design',2009,#1432);
#1432=APPLICATION_CONTEXT(
'Core Data for Automotive Mechanical Design Process');
#1433=PRODUCT_CONTEXT('part definition',#1432,'mechanical');
#1434=PRODUCT('Shell bottom','Shell bottom',$,(#1433));
#1435=PRESENTATION_STYLE_ASSIGNMENT((#1437));
#1436=PRESENTATION_STYLE_ASSIGNMENT((#1438));
#1437=SURFACE_STYLE_USAGE(.BOTH.,#1439);
#1438=SURFACE_STYLE_USAGE(.BOTH.,#1440);
#1439=SURFACE_SIDE_STYLE('',(#1441));
#1440=SURFACE_SIDE_STYLE('',(#1442));
#1441=SURFACE_STYLE_FILL_AREA(#1443);
#1442=SURFACE_STYLE_FILL_AREA(#1444);
#1443=FILL_AREA_STYLE('Plastic - Matte (Blue)',(#1445));
#1444=FILL_AREA_STYLE('Plastic - Translucent Matte (Blue)',(#1446));
#1445=FILL_AREA_STYLE_COLOUR('Plastic - Matte (Blue)',#1447);
#1446=FILL_AREA_STYLE_COLOUR('Plastic - Translucent Matte (Blue)',#1448);
#1447=COLOUR_RGB('Plastic - Matte (Blue)',0.188235294117647,0.231372549019608,
0.588235294117647);
#1448=COLOUR_RGB('Plastic - Translucent Matte (Blue)',0.188235294117647,
0.231372549019608,0.588235294117647);
ENDSEC;
END-ISO-10303-21;
